<?xml version="1.0" encoding="utf-8"?>
<!DOCTYPE svg PUBLIC "-//W3C//DTD SVG 1.1//EN" "http://www.w3.org/Graphics/SVG/1.1/DTD/svg11.dtd">
<svg version="1.1" xmlns="http://www.w3.org/2000/svg" xmlns:xlink="http://www.w3.org/1999/xlink" width="14" viewBox="0 0 1000 1000" enable-background="new 0 0 1000 1000" xml:space="preserve">
<g><g transform="translate(0.000000,512.000000) scale(0.100000,-0.100000)"><path fill="white" d="M4736.7,4999c-638.2-113.1-1184.5-492.6-1525.6-1058c-86.2-145.7-124.6-235.7-320.1-776.2c-124.6-346.9-151.4-438.9-151.4-532.8c0-506,588.4-778.1,973.6-450.4c113.1,97.8,136.1,145.7,310.5,621c191.7,529,224.2,594.2,371.8,741.7c542.4,542.4,1435.5,302.8,1650.2-440.8c24.9-82.4,30.7-161,24.9-297.1l-7.7-184L4846-712.5L3630.9-4047.3v-153.3c1.9-174.4,40.3-274.1,161-398.6c247.2-260.7,672.7-235.7,893.1,51.7c28.8,38.3,103.5,208.9,166.8,381.4C6310.3-179.6,7188.1,2264,7224.5,2440.3c36.4,170.6,40.2,243.4,32.6,479.1c-21.1,584.6-226.2,1061.8-634.4,1468.1c-314.3,314.3-657.4,500.2-1090.5,594.1C5336.6,5023.9,4932.2,5033.5,4736.7,4999z M5641.4,4749.9c92-26.8,208.9-69,260.7-95.8c88.2-44.1,93.9-53.7,107.3-138c19.2-126.5-19.2-431.2-76.7-598c-26.8-76.7-51.7-143.7-57.5-149.5c-3.8-5.7-46,15.3-92,47.9c-46,30.7-118.8,74.8-161,95.8l-80.5,40.2l-13.4,159.1c-19.2,230-61.3,460-105.4,576.9c-21.1,53.7-38.3,101.6-38.3,105.4C5384.6,4809.3,5499.6,4790.1,5641.4,4749.9z M4769.3,4682.8c80.5-130.3,128.4-283.7,151.4-479.1c11.5-90.1,19.2-162.9,17.3-164.8c-1.9-1.9-65.2-21.1-141.8-40.3l-138-38.3l-92,93.9c-116.9,120.7-391,304.7-519.4,350.7c-55.6,21.1-99.7,42.2-99.7,47.9c0,15.3,245.3,162.9,335.4,201.2c122.7,53.7,341.2,122.7,387.2,124.6C4698.4,4778.6,4727.2,4751.8,4769.3,4682.8z M6695.5,4006.2c86.2-120.8,260.7-458.1,260.7-504.1c0-40.2-276-362.2-477.2-561.6l-184-180.2l-24.9,203.2l-24.9,201.2l78.6,155.3c138,276,201.2,460,260.6,764.7c3.8,23,11.5,42.2,17.3,42.2C6605.4,4127,6647.6,4073.3,6695.5,4006.2z M3738.2,3889.3c118.8-42.2,264.5-128.4,389.1-230l53.7-44.1l-57.5-78.6c-30.7-44.1-67.1-105.4-80.5-139.9l-26.8-61.3l-182.1,13.4c-101.6,5.8-289.4,11.5-419.7,11.5c-235.7,0-235.7,0-224.2,44.1c36.4,118.8,134.2,341.2,195.5,440.8l69,113.1l78.6-11.5C3575.3,3939.1,3669.2,3914.2,3738.2,3889.3z M3763.1,2754.7c24.9-9.6,19.2-34.5-28.8-166.7c-57.5-159.1-134.2-260.7-228.1-310.5c-289.4-151.4-647.8,132.2-563.5,446.6c11.5,42.2,13.4,42.2,400.6,42.2C3558,2766.2,3745.9,2760.4,3763.1,2754.7z M7044.3,2555.3c-15.3-138-46-241.5-157.1-555.8l-86.3-239.6l-118.8-74.7c-494.5-312.4-954.5-578.8-950.6-552c0,7.7,49.8,145.7,109.2,308.6l109.3,297.1l241.5,182.1c304.8,231.9,525.2,419.7,707.2,603.7c78.6,80.5,145.7,145.7,151.4,145.7C7053.9,2670.3,7052,2618.6,7044.3,2555.3z M6354.3,535.2C6296.8,378.1,6237.4,242,6224,232.4c-59.4-38.3-636.3-364.2-824.1-463.8l-207-111.2l69,189.7c38.3,103.5,92,251.1,118.8,327.7l49.8,141.8L5796.6,495c199.3,97.7,429.3,216.6,507.9,262.6c78.6,46,145.7,78.6,149.5,72.8C6455.9,824.7,6411.8,690.5,6354.3,535.2z M5796.6-994.2c-69-191.7-138-360.3-149.5-373.7c-59.4-59.4-979.4-521.3-1000.5-502.2c-3.8,5.8,49.8,168.7,120.7,362.2l128.4,354.6l507.9,260.7c279.8,141.8,509.8,256.8,513.6,254.9C5921.2-639.6,5867.5-800.6,5796.6-994.2z M5346.2-2224.7c0-3.8-55.6-161-124.6-348.8c-69-187.8-124.6-343.1-124.6-345c0-23-1010.1-538.6-1023.5-523.3c-3.8,3.8,55.6,178.3,132.2,389.1l138,379.5l371.8,172.5c205.1,93.9,423.6,195.5,486.8,226.2C5317.5-2220.8,5346.2-2209.3,5346.2-2224.7z M4744.4-3888.3c-24.9-67.1-76.7-208.9-115-314.3c-101.6-279.8-208.9-377.6-414-379.5c-184,0-333.5,111.2-381.4,283.7c-11.5,42.2-17.2,78.6-15.3,78.6c1.9,1.9,141.8,67.1,310.5,143.8c168.7,76.7,379.5,176.3,469.6,222.3c90.1,46,168.7,82.4,176.3,82.4C4782.7-3769.4,4769.3-3823.1,4744.4-3888.3z"/></g></g>
</svg>